<svg width="214" height="222" viewBox="0 0 214 222" fill="none" xmlns="http://www.w3.org/2000/svg">
<path d="M106.832 1.22005e-05C47.8301 1.73586e-05 7.61203e-07 47.8302 5.91927e-06 106.832C1.10773e-05 165.833 47.8302 213.663 106.832 213.663C165.833 213.663 213.663 165.833 213.663 106.832C213.663 47.8301 165.833 7.04247e-06 106.832 1.22005e-05Z" fill="#E7800B"/>
<path d="M66.3874 213.924L203.241 75.205C200.425 68.7164 196.978 62.5637 192.969 56.834L46.5158 202.957C52.6859 207.29 59.3426 210.981 66.3874 213.924Z" fill="#FBD832"/>
<path d="M106.832 222C164.847 222 211.873 174.974 211.873 116.959C211.873 113.992 211.746 111.055 211.502 108.153L99.4507 221.739C101.89 221.907 104.352 222 106.832 222Z" fill="#FBD832"/>
<path d="M15.2369 168.393L158.469 25.4739C153.95 22.919 149.222 20.6885 144.321 18.8172L8.60913 154.228C10.4746 159.135 12.6935 163.868 15.2369 168.393Z" fill="#FBD832"/>
<path d="M38.4397 196.677L186.7 48.7405C185.212 46.9966 183.665 45.3049 182.066 43.6654L33.3762 192.03C35.0158 193.635 36.7017 195.182 38.4397 196.677Z" fill="#FBD832"/>
<path d="M132.479 15.0804C124.27 13.0179 115.678 11.923 106.832 11.923C48.8216 11.923 1.7902 58.9486 1.7902 116.964C1.79021 125.73 2.87358 134.246 4.89549 142.386L132.479 15.0862L132.479 15.0804Z" fill="#FBD832"/>
<path d="M46.5158 202.957L192.963 56.8339C191.005 54.0357 188.913 51.3359 186.7 48.7405L38.4397 196.677C41.0236 198.896 43.7233 200.993 46.5158 202.957Z" fill="#FBEB9A"/>
<path d="M99.4508 221.739L211.502 108.153C210.535 96.5308 207.679 85.4421 203.235 75.205L66.3874 213.924C76.6824 218.223 87.8059 220.928 99.4508 221.739Z" fill="#FBEB9A"/>
<path d="M8.6091 154.228L144.315 18.8172C140.474 17.3457 136.523 16.1001 132.479 15.0804L4.89549 142.38C5.90355 146.43 7.14336 150.381 8.6033 154.228L8.6091 154.228Z" fill="#FBEB9A"/>
<path d="M33.3762 192.03L182.066 43.6654C175.125 36.5452 167.182 30.4042 158.469 25.4739L15.2368 168.393C20.1497 177.124 26.2734 185.078 33.3762 192.03Z" fill="#FBEB9A"/>
<path d="M21.7777 112.243C21.7777 127.317 25.8389 141.442 32.9243 153.591C27.2351 142.409 24.0255 129.756 24.0255 116.356C24.0255 70.9526 60.8314 34.1467 106.235 34.1467C126.813 34.1467 145.619 41.7072 160.039 54.1979C155.514 49.1286 150.37 44.6271 144.715 40.815C132.711 33.9555 118.807 30.0334 103.987 30.0334C58.5836 30.0334 21.7777 66.8393 21.7777 112.243Z" fill="#FBEB9A"/>
<path d="M99.1553 190.142C144.228 190.142 180.762 153.602 180.762 108.535C180.762 87.6668 172.924 68.6295 160.039 54.2037C145.619 41.713 126.807 34.1525 106.235 34.1525C60.8314 34.1525 24.0255 70.9584 24.0255 116.362C24.0255 129.762 27.2351 142.415 32.9243 153.597C36.4351 159.622 40.6933 165.16 45.5714 170.085C59.9103 182.575 78.6464 190.148 99.161 190.148L99.1553 190.142Z" fill="#F8B748"/>
<path d="M105.835 34.1409C60.5889 34.1409 23.9097 70.8202 23.9097 116.066C23.9097 161.313 60.589 197.992 105.835 197.992C151.081 197.992 187.761 161.313 187.761 116.066C187.761 70.8202 151.081 34.1409 105.835 34.1409Z" fill="#E6253C"/>
<mask id="mask0_6_4" style="mask-type:luminance" maskUnits="userSpaceOnUse" x="23" y="34" width="165" height="164">
<path d="M105.835 34.1409C60.5889 34.1409 23.9097 70.8202 23.9097 116.066C23.9097 161.313 60.589 197.992 105.835 197.992C151.081 197.992 187.761 161.313 187.761 116.066C187.761 70.8202 151.081 34.1409 105.835 34.1409Z" fill="white"/>
</mask>
<g mask="url(#mask0_6_4)">
<path d="M102.701 152.867C95.3837 158.202 87.2845 161.678 78.3509 163.208C72.934 164.141 67.4998 164.106 62.0481 163.59C61.0053 163.492 60.5534 163.098 60.6461 161.939C60.7677 160.334 60.6693 158.706 60.6635 157.09C60.2463 156.673 60.2695 156.134 60.2695 155.613C60.2579 145.52 60.2463 135.422 60.2695 125.33C60.2695 125.069 60.2927 124.809 60.3448 124.554C60.565 123.644 61.0516 123.888 61.5614 124.287C63.0214 125.44 64.435 126.639 65.8834 127.804C66.4801 128.285 67.0015 128.887 67.7663 129.125C69.3537 126.906 70.0025 124.328 70.5182 121.727C71.0454 119.027 71.0801 116.344 69.6955 113.813C69.3131 113.112 68.8496 112.492 68.2877 111.941C65.8544 109.56 63.4675 107.133 61.1965 104.59C60.9068 104.265 60.5881 103.964 60.4433 103.529C60.1768 100.696 60.3506 97.8575 60.339 95.0187C60.339 93.9875 60.901 93.6515 61.8801 93.8079C64.6552 94.2424 67.4476 94.1787 70.2459 94.1903C76.4854 94.2134 82.4759 92.9041 88.3099 90.8185C92.8983 89.1789 97.1971 86.9542 101.166 84.1154C101.484 83.8895 101.809 83.6577 102.179 83.5187C102.655 83.3391 103.048 83.3391 103.118 83.9879C103.153 88.6285 103.13 93.2633 103.13 97.9039C103.13 114.531 103.13 131.158 103.13 147.786C103.13 148.313 103.159 148.834 103.095 149.361C102.985 150.532 103.454 151.766 102.707 152.867L102.701 152.867Z" fill="#81CCDF"/>
<path d="M148.62 62.7259C149.06 62.303 148.939 61.7526 148.939 61.2428C148.944 57.8304 148.968 54.4181 148.927 51.0057C148.915 50.1483 149.176 49.8876 150.039 49.8876C156.383 49.9223 162.733 49.9166 169.077 49.8876C169.917 49.8876 170.212 50.0961 170.212 50.9825C170.189 69.232 170.195 87.4756 170.201 105.725C170.201 106.264 170.166 106.774 169.749 107.173C165.404 111.067 160.78 114.635 156.308 118.372C156.007 118.621 155.694 118.859 155.41 119.131C153.249 120.846 151.117 122.601 149.043 124.421C147.096 125.869 145.318 127.514 143.406 129.003C142.913 129.391 142.421 129.924 141.685 129.455C140.955 128.372 140.718 127.097 140.567 125.869C139.976 121.066 140.764 116.507 143.956 112.729C145.428 110.986 147.201 109.462 148.985 107.996C150.642 106.467 152.206 104.839 153.938 103.384C154.657 102.782 154.958 102.035 154.917 101.09C154.865 99.8736 154.917 98.657 154.888 97.4462C154.9 96.8552 154.674 96.4265 154.066 96.2701C148.492 94.8101 146.557 90.6157 145.932 85.4421C145.323 82.499 145.839 79.5849 146.297 76.7056C147.038 72.0418 147.849 67.3839 148.626 62.7259L148.62 62.7259Z" fill="#F9BD93"/>
<path d="M67.6851 129.727C65.3562 127.821 63.0272 125.921 60.6982 124.015C59.105 123.366 58.0216 122.034 56.6833 121.037C55.8201 120.394 55.0206 119.664 54.1921 118.975C49.4647 115.192 44.8531 111.264 40.1372 107.469C39.6911 107.034 39.6563 106.478 39.6563 105.899C39.6563 87.5915 39.6563 69.2841 39.6737 50.9767C39.6737 50.6291 39.4536 50.1715 39.9518 49.9397C43.2888 50.1483 46.6317 49.9803 49.9745 50.0324C50.971 50.0498 51.9732 50.0324 52.9697 50.0324C54.9163 49.9745 56.8687 50.1483 58.8095 49.9397C60.0493 49.8741 60.6692 50.4399 60.6692 51.6372C60.6692 54.8526 60.6692 58.068 60.6693 61.2833C60.6693 61.8395 60.5708 62.4305 61.2022 62.7607C61.7642 67.3665 62.639 71.9202 63.4154 76.4912C63.931 79.527 64.0758 82.5686 63.8499 85.6333C63.5834 86.8615 63.4211 88.1129 62.9924 89.3064C61.741 92.7998 59.5279 95.2968 55.8085 96.1948C54.9627 96.3976 54.644 96.861 54.7136 97.6721C54.1748 100.824 55.1133 103.332 57.7551 105.262C58.8733 106.078 59.9393 107.011 60.8836 108.048C62.3899 109.624 64.1337 110.951 65.6343 112.538C69.4753 116.605 70.5935 124.571 67.9458 129.444C67.8821 129.559 67.7894 129.652 67.6794 129.722L67.6851 129.727Z" fill="#F9BD93"/>
<path d="M54.4123 97.7069C54.1168 96.525 54.5919 96.1137 55.7911 95.8414C59.9219 94.8971 62.0017 91.9192 63.0388 88.0376C63.2415 87.2844 63.3864 86.5139 63.5544 85.755C64.6609 85.2046 65.7791 85.7144 66.8741 85.7955C68.3688 85.8998 69.8982 85.8245 71.3466 86.3285C80.228 86.2011 88.2577 83.6056 95.3026 78.1134C96.2701 77.3602 96.4265 76.3232 96.4092 75.1819C96.3802 73.0209 96.4092 73.0209 98.5991 73.0209C101.704 73.0209 104.81 73.0441 107.909 73.0035C108.72 72.992 109.155 73.1542 109.004 74.0579C108.599 76.5376 109.844 77.8353 111.994 78.8955C119.884 82.7829 128.163 85.1698 136.934 85.8477C137.41 85.8824 137.896 85.8477 138.371 85.8477C138.898 85.4595 139.513 85.4943 140.121 85.4769C141.766 85.4363 143.423 85.5696 145.063 85.3436C145.503 85.2799 145.938 85.3089 146.268 85.6739C146.702 88.9414 147.664 91.9656 150.335 94.1497C151.43 95.0419 152.67 95.6908 154.072 95.8935C155.062 96.0326 155.421 96.4961 155.19 97.4462C154.587 98.7092 153.428 99.4797 152.507 100.459C151.644 101.38 150.758 102.29 149.808 103.13C149.437 103.46 148.962 103.946 148.626 103.048C148.388 100.777 148.562 98.5006 148.521 96.2296C148.487 94.4915 148.463 94.4452 146.778 94.4336C144.767 94.4162 142.751 94.4683 140.741 94.4046C136.79 93.9933 132.81 93.8484 128.87 93.2633C122.636 92.3421 116.692 90.4535 110.904 88.026C108.842 87.1628 106.855 86.1489 104.873 85.1293C104.184 84.7759 103.425 84.4862 103.002 83.7562C102.475 83.2696 102.203 83.8721 101.913 84.0749C95.1578 88.8661 87.7074 92.0409 79.5849 93.6341C73.664 94.7928 67.7083 94.9087 61.741 94.1381C60.9589 94.0396 60.6287 94.0918 60.6519 94.9898C60.7098 97.9155 60.6982 100.847 60.7156 103.773C60.6577 103.796 60.5997 103.813 60.536 103.836C60.0609 103.778 59.7654 103.437 59.4758 103.124C57.8073 101.299 55.7796 99.8157 54.4007 97.7185L54.4123 97.7069Z" fill="#087183"/>
<path d="M141.847 129.484C143.643 128.882 144.738 127.323 146.21 126.28C147.131 125.626 147.994 124.896 148.886 124.2C149.535 124.844 149.338 125.672 149.338 126.431C149.356 135.55 149.356 144.669 149.338 153.793C149.338 154.97 149.477 156.14 149.437 157.316C148.794 157.426 148.933 157.93 148.933 158.347C148.921 159.703 148.898 161.058 148.939 162.414C148.962 163.162 148.672 163.382 147.948 163.393C135.086 163.66 122.515 162.252 110.632 156.928C107.921 155.711 105.25 154.408 102.695 152.872C102.695 151.737 102.695 150.595 102.695 149.46C103.269 149.072 103.796 149.396 104.306 149.605C111.206 152.391 118.355 154.141 125.77 154.767C127.682 154.929 129.594 155.224 131.523 155.114C133.754 154.987 135.961 155.497 138.197 155.387C139.936 155.3 140.121 155.138 140.138 153.376C140.156 151.847 140.075 150.317 140.202 148.788C140.26 147.728 140.075 146.673 140.144 145.607C140.15 143.197 140.022 140.787 140.185 138.383C140.289 137.299 140.057 136.222 140.144 135.139C140.138 133.319 140.092 131.494 140.121 129.675C140.127 129.113 140.08 128.54 140.405 128.036C140.828 127.671 140.99 128.053 141.146 128.325C141.372 128.719 141.477 129.183 141.847 129.496L141.847 129.484Z" fill="#B4DFEE"/>
<path d="M54.4528 118.778C56.5327 120.527 58.6184 122.271 60.6982 124.021C60.6866 133.91 60.6808 143.794 60.6693 153.683C60.6693 154.819 60.6577 155.96 60.6519 157.096C58.5894 157.774 56.5269 158.451 54.3196 159.181L54.3196 135.799C54.0241 134.826 53.9256 133.835 53.9314 132.821C53.9488 128.795 53.9314 124.768 53.9488 120.742C53.9488 120.064 53.804 119.317 54.447 118.789L54.4528 118.778Z" fill="#087183"/>
<path d="M149.437 157.304C148.771 156.98 148.933 156.372 148.927 155.821C148.927 145.804 148.927 135.787 148.927 125.765C148.927 125.243 148.898 124.716 148.886 124.195C150.897 122.341 152.982 120.574 155.219 118.998C155.717 119.479 155.647 120.116 155.647 120.713C155.665 124.971 155.647 129.229 155.659 133.487C155.659 134.281 155.474 135.034 155.277 135.793C155.259 143.029 155.248 150.259 155.23 157.496C155.23 158.017 155.23 158.533 155.23 159.158C153.232 158.521 151.331 157.918 149.437 157.31L149.437 157.304Z" fill="#087183"/>
<path d="M71.3466 86.3227C68.7222 86.4618 66.1383 86.1431 63.5544 85.7492C63.9426 80.2512 62.7317 74.927 61.8453 69.5622C61.5035 67.5055 61.1965 65.4431 60.8257 63.3922C60.7561 62.9866 60.8141 62.8128 61.208 62.7665C64.4234 63.8904 66.6597 66.1325 68.2703 69.0408C70.5703 73.1947 71.2192 77.7484 71.4103 82.4005C71.4625 83.7041 71.3698 85.0134 71.3408 86.3227L71.3466 86.3227Z" fill="#F5A56E"/>
<path d="M146.274 85.6681C143.643 85.894 141.013 85.9925 138.377 85.8419C138 80.4539 138.533 75.1877 140.81 70.2285C142.415 66.7292 144.877 64.0352 148.62 62.7259C149.39 63.5428 148.724 64.4234 148.603 65.1997C147.925 69.6549 147.004 74.0753 146.389 78.5363C146.065 80.8827 145.741 83.2811 146.268 85.6681L146.274 85.6681Z" fill="#F5A56E"/>
<path d="M102.707 161.29C103.813 163.312 104.815 165.056 105.731 166.84C106.171 167.692 106.739 168.295 107.608 168.735C109.421 169.656 111.183 170.681 113.17 171.776C111.252 172.831 109.572 173.816 107.828 174.685C106.797 175.2 106.107 175.925 105.598 176.944C104.74 178.659 103.773 180.316 102.718 182.245C101.791 180.571 100.864 179.117 100.152 177.564C99.4565 176.052 98.4369 175.032 96.9248 174.343C95.3895 173.636 93.9412 172.732 92.2089 171.776C94.254 170.652 96.0905 169.61 97.9618 168.636C98.6976 168.254 99.1958 167.75 99.5782 167.014C100.54 165.166 101.571 163.353 102.707 161.29Z" fill="#F28F3A"/>
<path d="M92.151 62.5C90.2217 63.5718 88.5822 64.5625 86.8673 65.3967C85.7782 65.9297 85.0771 66.6713 84.5499 67.7489C83.7273 69.429 82.754 71.0396 81.7633 72.8239C80.7552 71.6305 80.0774 70.3617 79.5849 69.0582C78.6174 66.4859 76.497 65.3098 74.2549 64.1859C73.3222 63.7166 72.3489 63.3111 71.4567 62.5579C72.5517 61.5093 73.9073 60.8315 75.2224 60.3274C77.6615 59.3831 78.8318 57.4712 79.8804 55.3277C80.3786 54.3138 80.9638 53.3405 81.5895 52.2108C82.6091 53.3926 83.2464 54.6788 83.7736 55.9649C84.718 58.2649 86.4734 59.6032 88.6227 60.6055C89.7235 61.1211 90.7721 61.7584 92.1394 62.5L92.151 62.5Z" fill="#99D5EA"/>
<path d="M155.277 135.793C155.259 130.197 155.236 124.594 155.219 118.998C157.304 117.225 159.378 115.441 161.476 113.685C163.915 111.646 166.383 109.641 168.828 107.614C169.1 107.388 169.343 107.133 169.737 107.173C166.331 113.958 162.93 120.748 159.512 127.532C158.121 130.295 156.69 133.041 155.277 135.793Z" fill="#F5A56E"/>
<path d="M54.4528 118.778C54.4239 123.227 54.4007 127.677 54.366 132.126C54.3602 133.348 54.337 134.571 54.3254 135.787C52.1934 131.587 50.0498 127.393 47.941 123.181C45.3223 117.949 42.7385 112.706 40.1372 107.469C40.9483 107.301 41.3075 108.002 41.7825 108.39C46.0234 111.831 50.2352 115.307 54.4528 118.772L54.4528 118.778Z" fill="#F5A56E"/>
<path d="M158.312 178.074C155.392 178.033 153.116 175.704 153.133 172.779C153.156 169.812 155.555 167.495 158.527 167.57C161.441 167.646 163.695 170.009 163.637 172.929C163.579 175.843 161.232 178.114 158.312 178.074Z" fill="#99D5EA"/>
<path d="M124.78 64.6146C127.671 64.6204 130.023 66.9841 130.017 69.8751C130.011 72.7718 127.653 75.1181 124.757 75.1124C121.86 75.1066 119.514 72.7486 119.519 69.8519C119.519 66.9609 121.889 64.6088 124.78 64.6146Z" fill="#F28F3B"/>
<path d="M56.469 173.793C56.469 171.771 56.469 171.753 58.8791 171.776C61.0169 171.8 60.6577 171.423 60.6577 174.279C60.6577 176.301 60.9879 175.954 58.1897 175.965C56.1562 175.971 56.498 176.22 56.4632 173.793L56.469 173.793Z" fill="#99D5EA"/>
<path d="M138.476 171.771C139.843 171.771 140.525 172.63 140.521 174.349C140.521 175.43 139.65 175.971 137.908 175.971C136.846 175.971 136.317 175.088 136.32 173.323C136.32 172.284 137.039 171.765 138.476 171.765L138.476 171.771Z" fill="#F28F3A"/>
<path d="M172.049 132.468C172.049 134.495 172.049 134.513 169.644 134.49C167.501 134.466 167.86 134.82 167.854 131.993C167.854 129.959 167.559 130.313 170.316 130.301C172.362 130.295 172.014 130.081 172.049 132.468Z" fill="#9AD5EA"/>
<path d="M111.107 60.4723C111.107 61.8279 110.286 62.5058 108.645 62.5058C107.482 62.5058 106.901 61.631 106.901 59.8813C106.901 58.8269 107.788 58.3016 109.56 58.3055C110.592 58.3055 111.107 59.0277 111.107 60.4723Z" fill="#F28F3A"/>
<path d="M53.0508 50.1599C49.1402 50.1599 45.2296 50.1657 41.319 50.1599C40.8614 50.1599 40.3573 50.3279 39.9518 49.9455C44.3201 49.9455 48.6825 49.9455 53.0508 49.9455C53.1377 49.9919 53.1667 50.0382 53.1435 50.0904C53.1146 50.1367 53.0856 50.1657 53.0566 50.1657L53.0508 50.1599Z" fill="#F6AB77"/>
<path d="M53.0508 50.1599C53.0508 50.0904 53.0508 50.015 53.0508 49.9455C54.9743 49.9455 56.8919 49.9455 58.8153 49.9455C56.9093 50.438 54.9743 50.0382 53.0566 50.1657L53.0508 50.1599Z" fill="#F8B486"/>
<path d="M140.532 148.678C140.532 150.474 140.44 152.276 140.555 154.06C140.642 155.392 140.011 155.752 138.875 155.752C137.172 155.752 135.469 155.549 133.789 155.549C129.067 155.549 124.386 155.12 119.745 154.402C114.433 153.573 109.305 151.998 104.317 149.999C103.796 149.79 103.245 149.634 102.712 149.46C102.712 128.007 102.712 106.554 102.712 85.1003C102.712 84.6426 102.539 84.1212 103.014 83.762C107.753 86.3053 112.613 88.5706 117.741 90.2391C123.25 92.0351 128.882 93.1416 134.658 93.5414C136.616 93.6746 138.574 93.8716 140.532 94.0396C140.845 94.3872 140.926 94.8102 140.926 95.2505C140.926 100.772 141.025 106.299 140.88 111.82C140.874 111.976 140.839 112.127 140.793 112.277C138.36 115.968 138.389 119.907 139.652 123.963C139.964 124.959 140.243 125.973 140.677 126.929C140.799 127.254 140.967 127.578 140.776 127.931C140.248 128.829 140.584 129.803 140.544 130.741C140.474 132.265 140.509 133.8 140.503 135.33C139.814 134.553 138.956 134.53 137.966 134.559C129.467 134.774 121.367 133.082 113.743 129.264C113.262 129.026 112.724 128.441 112.196 128.916C111.553 129.496 111.067 130.284 110.899 131.147C110.783 131.738 111.426 131.877 111.831 132.091C115.626 134.142 119.635 135.625 123.841 136.575C128.117 137.543 132.439 138.134 136.836 138.076C137.578 138.064 138.319 138.053 139.055 137.925C139.565 137.838 140.104 137.734 140.526 138.186C140.515 140.735 140.503 143.284 140.497 145.833C139.808 145.057 138.951 145.034 137.96 145.063C129.461 145.277 121.362 143.585 113.737 139.767C113.257 139.53 112.718 138.945 112.191 139.42C111.547 139.999 111.061 140.787 110.893 141.65C110.777 142.241 111.42 142.38 111.826 142.595C115.62 144.646 119.629 146.129 123.835 147.079C128.111 148.046 132.433 148.637 136.83 148.579C137.572 148.568 138.313 148.556 139.049 148.429C139.559 148.342 140.098 148.238 140.521 148.689L140.532 148.678Z" fill="#99D5EA"/>
<path d="M71.3756 106.895C70.2401 107.046 68.8612 106.681 67.465 106.652C66.7756 106.635 66.6423 106.31 66.8045 105.725C66.8161 105.685 66.8393 105.644 66.8451 105.598C67.0131 104.613 66.8625 103.344 67.4244 102.718C68.0386 102.035 69.2957 102.712 70.2806 102.707C78.855 102.695 87.0006 100.963 94.5553 96.8089C95.1694 96.4729 95.4185 96.5772 95.7661 97.1623C97.5099 100.076 97.5331 100.076 94.5205 101.548C88.449 104.508 82.0414 106.194 75.2978 106.681C74.0811 106.768 72.8645 106.878 71.3698 106.895L71.3756 106.895Z" fill="#158CA8"/>
<path d="M71.5378 150.758C70.1821 150.787 68.838 150.729 67.4882 150.538C66.8393 150.445 66.6655 150.23 66.7871 149.616C66.9899 148.597 66.8335 147.247 67.436 146.639C67.9227 146.146 69.3073 146.54 70.2922 146.552C78.7391 146.656 86.7572 144.883 94.2366 140.909C95.1925 140.405 95.5343 140.631 96.0268 141.482C97.5041 144.037 97.5505 144.031 94.9202 145.294C88.8023 148.238 82.3832 150.039 75.5932 150.543C74.2433 150.642 72.8993 150.746 71.5436 150.758L71.5378 150.758Z" fill="#158CA8"/>
<path d="M67.6852 129.727C69.962 124.195 69.4753 118.911 66.26 113.876C65.3098 112.388 63.8615 111.356 62.6159 110.134C61.967 109.491 61.3065 108.859 60.6519 108.222C60.0899 106.727 60.0378 105.227 60.6287 103.721L60.7272 103.761C63.595 106.687 66.5902 109.497 69.2899 112.573C71.1844 114.734 71.4104 117.573 71.1033 120.342C70.7789 123.256 69.8229 126.014 68.5658 128.661C68.3688 129.079 68.2645 129.606 67.6909 129.722L67.6852 129.727Z" fill="#6FC3D2"/>
<path d="M69.0814 138.14C69.0814 136.749 69.8519 136.054 71.3929 136.054C72.6559 136.054 73.2874 136.888 73.2874 138.557C73.2874 140.254 73.2874 140.266 70.7151 140.248C68.7917 140.237 69.1161 140.451 69.0814 138.14Z" fill="#158CA8"/>
<path d="M140.776 127.914L140.526 127.132C140.358 126.819 140.301 126.466 140.272 126.124C139.93 121.976 140.144 117.816 140.15 113.668C140.15 113.239 140.289 112.805 140.521 112.422L140.521 112.156C140.897 111.391 141.535 110.846 142.114 110.256C144.101 108.222 146.181 106.281 148.11 104.19C148.4 103.871 148.747 103.309 149.188 104.086C149.367 105.499 149.431 106.913 149.13 108.321C146.922 110.516 144.24 112.254 142.722 115.11C140.243 119.78 140.156 124.577 141.847 129.496C141.019 129.299 141.019 128.528 140.776 127.926L140.776 127.914Z" fill="#96C3CE"/>
<path d="M149.13 108.309C148.684 106.808 149.083 105.262 148.904 103.744C148.852 103.634 148.875 103.552 148.985 103.495C151.059 101.478 153.133 99.4623 155.207 97.4462C155.224 98.9293 155.213 100.412 155.271 101.896C155.294 102.51 154.964 102.851 154.576 103.211C152.756 104.908 150.943 106.611 149.13 108.315L149.13 108.309Z" fill="#116371"/>
<path d="M60.6287 103.726C60.6345 105.227 60.6461 106.727 60.6519 108.228C58.6821 106.432 56.7239 104.624 54.7425 102.84C54.4065 102.533 54.3602 102.185 54.366 101.78C54.3833 100.424 54.3949 99.0684 54.4065 97.7127C56.4806 99.7172 58.5488 101.722 60.6229 103.732L60.6287 103.726Z" fill="#116371"/>
<path d="M148.979 103.489L148.898 103.738C146.221 106.652 143.429 109.456 140.526 112.144C140.526 106.107 140.526 100.065 140.526 94.028C143.012 94.028 145.503 94.057 147.988 94.0164C148.742 94.0049 148.95 94.2482 148.944 94.984C148.921 97.817 148.962 100.656 148.979 103.495L148.979 103.489Z" fill="#B4DFEE"/>
<path d="M140.532 148.678C134.42 149.333 128.43 148.585 122.503 147.108C118.453 146.094 114.635 144.507 110.945 142.572C110.238 142.201 110.07 141.888 110.557 141.198C111.136 140.382 111.432 139.072 112.179 138.754C112.95 138.423 113.923 139.46 114.815 139.878C120.325 142.467 126.095 144.026 132.172 144.507C134.617 144.704 137.05 144.866 139.489 144.518C140.683 144.35 140.046 145.491 140.509 145.822C140.411 146.778 140.758 147.728 140.538 148.678L140.532 148.678Z" fill="#158CA8"/>
<path d="M140.532 138.168C134.42 138.823 128.43 138.076 122.503 136.598C118.453 135.585 114.635 133.997 110.945 132.062C110.238 131.691 110.07 131.379 110.557 130.689C111.136 129.872 111.432 128.563 112.179 128.244C112.95 127.914 113.923 128.951 114.815 129.368C120.325 131.958 126.095 133.516 132.172 133.997C134.617 134.194 137.05 134.356 139.489 134.009C140.683 133.841 140.046 134.982 140.509 135.312C140.411 136.268 140.758 137.218 140.538 138.168L140.532 138.168Z" fill="#158CA8"/>
<path d="M140.526 112.411C140.526 117.318 140.526 122.219 140.526 127.126C139.53 125.608 139.246 123.835 138.835 122.126C138.087 119.033 138.284 116.026 139.878 113.193C140.046 112.892 140.173 112.556 140.532 112.417L140.526 112.411Z" fill="#7EBFCC"/>
</g>
<path d="M106.229 198.565C151.632 198.565 188.438 161.759 188.438 116.356C188.438 101.281 184.377 87.157 177.292 75.0081C172.709 67.1521 166.869 60.1188 160.033 54.1979C172.918 68.6294 180.756 87.661 180.756 108.529C180.756 153.602 144.217 190.136 99.1494 190.136C78.6406 190.136 59.8987 182.57 45.5598 170.073C43.254 168.063 41.0641 165.931 39.0016 163.677C53.8851 184.777 78.4436 198.56 106.229 198.56L106.229 198.565Z" fill="#B4212E"/>
</svg>
