<svg width="213" height="222" viewBox="0 0 213 222" fill="none" xmlns="http://www.w3.org/2000/svg">
<g clip-path="url(#clip0_6_62)">
<path d="M106.503 222C165.323 222 213.006 174.17 213.006 115.168C213.006 56.1669 165.323 8.33681 106.503 8.33681C47.683 8.33681 0 56.1669 0 115.168C0 174.17 47.683 222 106.503 222Z" fill="#E7800B"/>
<path d="M146.823 8.0761L10.3904 146.795C13.1974 153.284 16.6339 159.436 20.6306 165.166L166.633 19.0431C160.482 14.7096 153.846 11.0192 146.823 8.0761Z" fill="#FBD832"/>
<path d="M106.503 0C48.6656 0 1.78468 47.0256 1.78468 105.041C1.78468 108.008 1.91174 110.945 2.15432 113.847L113.861 0.260706C111.43 0.0926955 108.975 0 106.503 0Z" fill="#FBD832"/>
<path d="M197.816 53.607L55.0246 196.526C59.5296 199.081 64.2425 201.312 69.1287 203.183L204.423 67.772C202.563 62.8649 200.351 58.1317 197.816 53.607Z" fill="#FBD832"/>
<path d="M174.684 25.3233L26.8799 173.26C28.3642 175.003 29.9063 176.695 31.5004 178.335L179.732 29.9696C178.098 28.3648 176.417 26.818 174.684 25.3233Z" fill="#FBD832"/>
<path d="M80.9341 206.92C89.1182 208.982 97.6835 210.077 106.503 210.077C164.334 210.077 211.221 163.051 211.221 105.036C211.221 96.2701 210.141 87.7537 208.125 79.6139L80.9341 206.914V206.92Z" fill="#FBD832"/>
<path d="M166.633 19.0431L20.6364 165.166C22.5886 167.964 24.6736 170.664 26.8799 173.26L174.684 25.3233C172.108 23.1044 169.417 21.0071 166.633 19.0431Z" fill="#FBEB9A"/>
<path d="M113.861 0.260712L2.15432 113.847C3.11885 125.469 5.96625 136.558 10.3962 146.795L146.823 8.0761C136.559 3.77735 125.47 1.0718 113.861 0.260712Z" fill="#FBEB9A"/>
<path d="M204.423 67.772L69.1345 203.183C72.9637 204.654 76.9027 205.9 80.9341 206.92L208.125 79.6197C207.12 75.57 205.884 71.6189 204.429 67.772H204.423Z" fill="#FBEB9A"/>
<path d="M179.732 29.9696L31.5004 178.335C38.4196 185.455 46.338 191.596 55.0246 196.526L197.816 53.607C192.918 44.8762 186.813 36.9218 179.732 29.9696Z" fill="#FBEB9A"/>
<path d="M114.156 31.8583C69.2211 31.8583 32.7999 68.3977 32.7999 113.465C32.7999 134.333 40.6143 153.371 53.4594 167.796C67.8349 180.287 86.5885 187.847 107.098 187.847C152.361 187.847 189.054 151.042 189.054 105.638C189.054 92.2379 185.854 79.5849 180.183 68.4035C176.683 62.3783 172.438 56.8397 167.575 51.9153C153.28 39.4246 134.601 31.8525 114.15 31.8525L114.156 31.8583Z" fill="#F8B748"/>
<path d="M106.566 24.2515H108.478C109.09 24.5875 109.755 24.3326 110.384 24.4137C111.019 24.3326 111.684 24.5875 112.296 24.2515H114.208C116.604 24.628 119.042 24.4948 121.439 24.8308C128.144 25.7867 134.532 27.8608 140.712 30.5837C150.028 34.6855 158.264 40.3979 165.466 47.6049C175.337 57.4828 182.262 69.1393 186.293 82.528C186.519 83.2811 186.802 84.0633 186.374 84.8512C185.768 85.4016 185.294 84.9381 184.838 84.6136C184.318 84.2429 183.902 83.7562 183.452 83.3043C173.714 73.5365 163.982 63.7571 154.233 54.0009C153.199 52.9639 152.512 51.5387 150.987 51.0405C150.565 50.6755 150.057 50.5422 149.52 50.5422C145.055 50.5422 140.585 50.3742 136.12 50.6465C133.383 51.0289 130.628 50.7682 127.879 50.8261C126.238 50.8609 124.598 50.8261 122.958 50.8377C120.44 50.8493 120.324 50.9594 120.318 53.41C120.312 55.1596 120.307 56.9151 120.33 58.6647C120.347 58.908 120.376 59.1513 120.44 59.3889C121.346 60.6403 122.582 61.5672 123.633 62.6738C125.245 64.3597 126.931 65.9818 128.566 67.6503C129.12 68.2123 129.738 68.7511 129.796 69.6317C129.715 70.5645 129.039 71.1264 128.45 71.7232C126.256 73.9536 124.061 76.1841 121.82 78.3625C120.971 79.1851 120.757 79.9962 121.289 81.0449C122.317 83.0784 122.808 85.3552 124.101 87.267C124.367 88.0897 125.141 88.4489 125.69 89.0051C143.103 106.507 160.534 123.986 177.953 141.482C178.727 142.264 179.669 142.942 179.894 144.142C179.83 145.271 179.519 146.256 178.392 146.778C177.48 146.795 176.983 146.117 176.429 145.567C161.366 130.469 146.32 115.36 131.263 100.262C130.483 99.4797 129.981 98.4137 128.907 97.9386C128.439 97.6084 127.925 97.3651 127.417 97.0986C119.943 90.1232 112.937 82.6728 105.66 75.5063C104.984 74.84 104.366 74.0927 103.367 73.8725C101.917 73.4554 100.433 73.4322 98.9599 73.5075C88.223 74.0463 78.4852 77.3254 70.2203 84.3761C61.7243 91.6237 56.3068 100.737 54.4123 111.826C52.6277 122.236 54.2506 132.132 59.1253 141.494C60.0089 143.191 61.1121 144.761 62.1171 146.384C63.6765 148.973 65.7557 151.123 67.9043 153.208C68.8861 154.158 69.995 154.97 70.8325 156.064C71 156.337 71.1848 156.598 71.4967 156.737C71.9472 156.951 72.3515 157.217 72.6056 157.658C72.8771 158.382 73.4316 158.886 73.9687 159.396C82.9614 167.895 91.492 176.869 100.271 185.588C100.82 186.133 101.692 186.671 101.062 187.708C97.4929 187.975 93.9871 187.482 90.5159 186.729C77.0529 183.804 65.0049 177.946 54.5048 168.967C46.4708 162.101 39.8866 154.06 34.9369 144.669C31.1134 137.415 28.3873 129.803 26.8683 121.744C26.3774 119.131 26.3947 116.466 26.1868 113.819C26.1579 113.459 26.3023 113.071 26.0308 112.747V110.829C26.285 110.082 26.285 109.34 26.0308 108.593V103.802C26.285 103.164 26.285 102.521 26.0308 101.884V99.0104C26.4351 96.8205 26.3312 94.59 26.5911 92.3827C27.313 86.3111 29.1439 80.5408 31.4253 74.9154C35.2776 65.4083 40.7703 56.9614 47.7992 49.4704C54.5279 42.2981 62.273 36.5394 71.0058 32.1306C77.7575 28.7182 84.8904 26.3081 92.3468 24.9872C95.148 24.489 98.0242 24.6512 100.843 24.2457H104.343C105.088 24.5006 105.827 24.5006 106.572 24.2457L106.566 24.2515Z" fill="#717DBC"/>
<path d="M106.566 24.2515C105.821 24.7149 105.082 24.7265 104.337 24.2515H106.566Z" fill="#7E88C3"/>
<path d="M26.0193 108.587C26.464 109.334 26.5391 110.076 26.0193 110.823V108.587Z" fill="#959BCE"/>
<path d="M110.401 24.5527C109.749 24.5122 109.056 24.7439 108.472 24.2457H110.384C110.592 24.3384 110.598 24.4369 110.401 24.5527Z" fill="#7E88C3"/>
<path d="M110.401 24.5527C110.396 24.4484 110.39 24.3499 110.384 24.2457H112.296C111.736 24.7903 111.037 24.4832 110.401 24.5527Z" fill="#989FD0"/>
<path d="M26.0193 101.878C26.4987 102.515 26.4467 103.159 26.0193 103.796V101.878Z" fill="#8F97CB"/>
<path d="M178.213 146.627C175.36 152.073 171.664 156.928 167.511 161.418C154.839 175.125 139.28 183.555 120.942 186.776C114.97 187.824 108.929 187.998 102.876 187.755C102.298 187.732 101.726 187.581 101.155 187.494C100.727 187.025 100.323 186.532 99.8724 186.08C90.9549 177.124 82.0257 168.179 73.1254 159.205C72.7442 158.816 71.9299 158.596 72.2302 157.75C73.189 157.368 73.859 158 74.5463 158.457C79.727 161.951 85.4276 164.233 91.5497 165.259C106.179 167.709 119.175 164.054 130.339 154.216C136.964 148.377 140.094 142.624 141.942 138.012C137.27 141.227 132.199 143.301 126.671 144.171C115.796 145.88 105.943 143.377 97.2041 136.674C94.3798 134.507 91.7981 132.056 89.8806 128.986C86.4383 124.838 84.4284 120 83.4003 114.78C81.2344 103.761 83.1693 93.5182 89.7535 84.3355C92.7511 80.1584 96.4995 76.7171 100.929 74.0695C101.761 73.5713 102.656 73.3279 103.632 73.409C104.158 73.2526 104.516 73.4902 104.88 73.8551C112.44 81.4851 120.012 89.1094 127.584 96.7336C127.035 97.6373 126.117 97.4346 125.303 97.4577C119.498 97.6026 113.705 97.0985 107.906 97.2376C106.78 97.2666 105.7 97.3766 104.672 97.8401C104.556 98.0197 104.62 97.7416 104.562 97.9386C103.788 100.505 103.707 103.072 104.62 105.621C105.544 106.073 106.52 106.212 107.537 106.2C110.118 106.183 112.7 106.177 115.282 106.2C115.94 106.206 116.72 106.078 116.916 107.034C116.824 108.002 116.206 108.662 115.565 109.3C112.562 112.295 109.599 115.331 106.566 118.297C105.508 119.332 105.242 120.514 105.769 121.842C106.22 122.978 106.734 124.09 107.109 125.243C107.554 126.605 108.357 127.138 109.812 127.12C112.29 127.091 114.785 126.883 117.257 127.288C121.976 127.514 126.7 127.335 131.419 127.387C132.493 127.398 132.961 126.929 132.955 125.857C132.944 124.05 132.932 122.236 132.955 120.429C132.973 119.253 132.418 118.836 131.298 118.841C128.271 118.859 125.251 118.853 122.224 118.841C121.803 118.841 121.375 118.841 120.954 118.824C120.307 118.801 119.585 118.778 119.302 118.106C119.013 117.434 119.492 116.883 119.937 116.42C122.294 113.969 124.731 111.594 127.122 109.172C128.208 108.077 129.288 106.976 130.385 105.893C131.072 105.215 131.252 104.532 130.87 103.599C130.31 102.22 129.663 100.876 129.184 99.4681C128.953 98.7787 128.554 98.0718 129.172 97.365C129.6 97.759 130.05 98.1356 130.46 98.5469C145.991 114.131 161.527 129.716 177.052 145.3C177.462 145.712 177.826 146.169 178.213 146.61V146.627Z" fill="#4956A2"/>
<path d="M186.166 84.9439C187.397 88.1361 187.87 91.5137 188.309 94.8623C190.123 108.761 188.679 122.312 183.619 135.417C182.458 138.423 181.332 141.453 179.495 144.142C179.218 143.475 178.641 143.064 178.161 142.577C160.471 124.815 142.774 107.058 125.083 89.2948C124.569 88.7791 123.905 88.3562 123.726 87.5683C124.107 86.8151 124.823 86.8267 125.505 86.8209C129.022 86.8036 132.545 86.6993 136.057 86.8847C141.561 86.6935 147.071 86.8441 152.575 86.7978C155.082 86.7746 155.197 86.6645 155.215 84.2023C155.22 83.0841 155.226 81.9718 155.215 80.8537C155.186 78.8607 154.989 78.6348 153.026 78.6232C148.313 78.6 143.6 78.6232 138.887 78.6116C138.096 78.6116 137.299 78.6579 136.513 78.4783C134.896 78.0728 134.844 77.9569 135.606 76.4738C136.559 75.8655 137.148 74.8864 137.934 74.1043C142.635 69.4231 147.256 64.6609 152.027 60.0493C153.459 58.6647 153.956 57.448 152.945 55.6463C152.402 54.6846 152.09 53.5896 151.668 52.5526C151.432 51.9674 151.154 51.3591 151.616 50.745C152.304 50.9767 152.72 51.5503 153.205 52.0369C163.722 62.5811 174.234 73.1368 184.751 83.6809C185.196 84.127 185.699 84.5209 186.172 84.9381L186.166 84.9439Z" fill="#4956A2"/>
<path d="M103.632 73.4033C92.4796 79.2257 85.7683 88.4026 83.6891 100.783C81.9795 110.957 84.3937 120.313 90.3022 128.754C90.3715 129.913 89.3839 130.237 88.6735 130.689C82.4993 134.634 76.3598 138.626 70.1914 142.577C68.0891 143.921 66.056 145.376 63.9017 146.639C63.226 147.032 62.5445 147.571 61.7243 146.911C55.966 138.893 53.1244 129.924 53.0493 120.064C52.8645 96.0905 70.8152 75.796 94.5473 73.1947C97.1752 72.905 99.8262 72.6791 102.477 73.0325C102.882 73.0846 103.349 72.963 103.627 73.4033H103.632Z" fill="white"/>
<path d="M61.7301 146.917C62.995 146.876 63.8266 145.938 64.7739 145.329C73.1023 140.005 81.3846 134.617 89.6842 129.241C89.9037 129.096 90.1001 128.916 90.308 128.754C94.2181 133.679 98.7751 137.861 104.556 140.44C117.511 146.21 129.94 145.121 141.781 137.288C142.133 137.056 142.474 136.795 142.82 136.558C142.861 136.529 142.918 136.529 143.011 136.506C143.45 137.102 142.953 137.601 142.751 138.047C135.803 153.411 124.107 162.947 107.566 165.971C94.7321 168.312 82.9094 165.236 72.2302 157.745C72.0223 157.345 71.7277 157.212 71.3177 157.449C71.0058 157.183 70.7632 156.876 70.613 156.493C67.7137 154.031 64.9645 151.418 62.6657 148.365C62.3192 147.907 62.0362 147.397 61.7243 146.911L61.7301 146.917Z" fill="#E8EDF6"/>
<path d="M103.748 97.0812C104.262 96.6698 104.868 96.89 105.423 96.8842C112.81 96.8205 120.197 96.7799 127.584 96.7336C128.156 96.8494 128.826 96.7162 129.172 97.3766C130.016 99.526 130.801 101.704 131.737 103.813C132.176 104.804 132.037 105.401 131.269 106.148C127.671 109.676 124.13 113.268 120.584 116.848C120.232 117.208 119.741 117.468 119.556 118.175C123.737 118.175 127.85 118.251 131.956 118.135C133.417 118.094 133.723 118.54 133.66 119.902C133.544 122.236 133.614 124.577 133.637 126.918C133.643 127.59 133.556 128.013 132.713 128.007C127.578 127.966 122.438 127.972 117.303 127.949C117.211 127.949 117.119 127.856 117.026 127.81C116.553 127.323 116.397 126.732 116.397 126.066C116.368 120.388 116.368 114.711 116.397 109.033C116.397 108.448 116.708 107.898 116.541 107.307C117.142 106.252 116.194 106.611 115.842 106.606C112.515 106.577 109.194 106.606 105.868 106.571C105.157 106.565 104.406 106.826 103.736 106.357C104.204 105.569 104.995 105.673 105.717 105.661C108.467 105.615 111.222 105.661 113.971 105.638C116.218 105.621 116.368 105.464 116.379 103.153C116.385 101.93 116.362 100.708 116.379 99.4913C116.397 98.2688 115.813 97.7822 114.635 97.7764C111.672 97.7706 108.709 97.8054 105.746 97.7532C105.024 97.7416 104.233 97.8459 103.759 97.0638L103.748 97.0812Z" fill="#FBBA1C"/>
<path d="M151.616 50.7508C152.494 52.8944 153.361 55.038 154.25 57.17C154.527 57.8362 154.602 58.3287 153.973 58.9486C148.145 64.7304 142.364 70.5587 136.565 76.3695C136.461 76.4738 136.311 76.5375 136.184 76.6244C135.37 76.103 135.502 75.2514 135.497 74.4809C135.468 70.8947 135.445 67.3085 135.537 63.7282C135.456 62.3088 136.802 61.7468 137.414 60.6402C136.889 60.2521 136.305 60.4027 135.768 60.4027C131.442 60.3911 127.122 60.3795 122.796 60.4027C121.768 60.4027 120.803 60.2521 119.914 59.7365L119.706 59.4004C120.249 58.6125 121.086 58.711 121.866 58.7052C125.256 58.6763 128.647 58.6936 132.037 58.6936C134.332 58.6936 135.481 57.5658 135.485 55.3103C135.485 54.1921 135.485 53.0798 135.497 51.9616C135.502 51.249 135.606 50.5828 136.167 50.073C138.563 49.6732 140.978 49.9687 143.38 49.9049C145.587 49.8528 147.799 49.9165 150.005 49.8818C150.744 49.8702 151.351 49.9629 151.628 50.7508H151.616Z" fill="#FBBA1C"/>
<path d="M135.843 63.5196C136.311 64.0642 136.167 64.7247 136.167 65.3446C136.178 69.1045 136.178 72.8645 136.178 76.6244C135.855 77.0068 135.537 77.395 135.156 77.8411L136.167 77.9801C136.675 78.3625 136.825 78.8955 136.837 79.5038C136.883 81.6532 136.883 83.8083 136.837 85.9577C136.825 86.566 136.646 87.0874 136.167 87.4872C132.02 87.5162 127.867 87.5451 123.72 87.5799C123.108 87.5104 123.056 86.9426 122.888 86.5429C122.022 84.5094 121.231 82.4469 120.336 80.4307C119.977 79.6255 120.122 79.1504 120.74 78.5421C123.697 75.6106 126.596 72.6154 129.519 69.6433C129.623 68.9944 129.917 68.4614 130.379 67.9922C131.65 66.7234 132.892 65.4257 134.197 64.1917C134.642 63.7687 135.098 63.2473 135.843 63.5254V63.5196Z" fill="#FFCE05"/>
<path d="M136.155 50.073C136.161 52.6163 136.103 55.1654 136.201 57.7087C136.253 59.0702 135.728 59.4178 134.451 59.4062C129.536 59.3541 124.621 59.3946 119.706 59.4004C119.677 56.5964 119.689 53.7866 119.608 50.9825C119.579 49.9918 120.122 50.0266 120.798 50.0324C125.921 50.0556 131.038 50.0614 136.161 50.073H136.155Z" fill="#FFCE06"/>
<path d="M135.843 63.5196C133.735 65.5589 131.627 67.5982 129.519 69.6375C126.741 66.8045 123.963 63.9773 121.196 61.1385C120.751 60.6866 120.341 60.2057 119.914 59.7365C126.302 59.7365 132.695 59.7365 139.332 59.7365C138.084 61.0921 136.964 62.303 135.849 63.5196H135.843Z" fill="#4956A2"/>
<path d="M70.613 156.499C71.0404 156.679 71.2946 156.98 71.3177 157.455C70.9538 157.229 70.3705 157.171 70.613 156.499Z" fill="#606CB1"/>
<path d="M116.529 107.312C117.113 107.527 117.072 108.037 117.072 108.512C117.055 114.942 117.038 121.379 117.02 127.81C114.167 127.833 111.314 127.833 108.467 127.891C107.698 127.908 107.369 127.595 107.098 126.9C106.283 124.786 105.394 122.694 104.499 120.614C104.245 120.018 104.181 119.577 104.707 119.062C108.663 115.163 112.59 111.229 116.529 107.312Z" fill="#FFCE05"/>
<path d="M103.748 97.0812C107.67 97.087 111.585 97.1275 115.507 97.0812C116.651 97.0696 117.136 97.4114 117.095 98.6222C117.02 100.691 117.02 102.77 117.095 104.839C117.142 106.073 116.61 106.368 115.484 106.357C111.562 106.316 107.646 106.357 103.725 106.362C103.361 103.269 103.326 100.169 103.748 97.0754V97.0812Z" fill="#FFCE07"/>
<path d="M136.172 87.4814C136.172 84.3124 136.172 81.1433 136.172 77.9801C142.462 77.9627 148.758 77.9511 155.047 77.9048C155.85 77.899 156.017 78.2061 156.012 78.9302C155.977 81.4794 155.977 84.0227 156.012 86.5718C156.023 87.3018 155.833 87.6031 155.041 87.5973C148.752 87.5393 142.462 87.5162 136.172 87.4872V87.4814Z" fill="#FBBA1C"/>
<path d="M191.295 109.757C191.295 94.6827 187.246 80.5582 180.183 68.4093C185.854 79.5907 189.054 92.2436 189.054 105.644C189.054 151.047 152.361 187.853 107.098 187.853C86.5827 187.853 67.8349 180.293 53.4594 167.802C57.9701 172.871 63.0989 177.373 68.7359 181.185C80.7031 188.044 94.5646 191.967 109.339 191.967C154.602 191.967 191.295 155.161 191.295 109.757Z" fill="#FBEB9A"/>
<path d="M107.104 23.4346C61.8398 23.4346 25.1472 60.2405 25.1472 105.644C25.1472 120.719 29.1959 134.843 36.2595 146.992C40.828 154.848 46.6499 161.881 53.4651 167.802C40.6201 153.371 32.8057 134.339 32.8057 113.471C32.8057 68.3977 69.2326 31.8641 114.161 31.8641C134.607 31.8641 153.291 39.4304 167.586 51.9269C169.885 53.9372 172.068 56.0692 174.124 58.3229C159.286 37.223 134.804 23.4404 107.104 23.4404V23.4346Z" fill="#434E92"/>
</g>
<defs>
<clipPath id="clip0_6_62">
<rect width="213" height="222" fill="white"/>
</clipPath>
</defs>
</svg>
